<svg xmlns="http://www.w3.org/2000/svg" width="55.858" height="55.858" viewBox="0 0 55.858 55.858">
  <path id="Icon_awesome-facebook-square" data-name="Icon awesome-facebook-square" d="M49.873,2.25H5.985A5.985,5.985,0,0,0,0,8.235V52.123a5.985,5.985,0,0,0,5.985,5.985H23.1V39.117H15.242V30.179H23.1V23.366c0-7.749,4.613-12.029,11.679-12.029a47.587,47.587,0,0,1,6.922.6v7.606H37.8c-3.841,0-5.04,2.384-5.04,4.829v5.8h8.576l-1.372,8.938h-7.2v18.99H49.873a5.985,5.985,0,0,0,5.985-5.985V8.235A5.985,5.985,0,0,0,49.873,2.25Z" transform="translate(0 -2.25)" fill="#fff"/>
</svg>
