<svg xmlns="http://www.w3.org/2000/svg" width="56" height="56.001" viewBox="0 0 56 56.001">
  <path id="Subtraction_8" data-name="Subtraction 8" d="M5847,118h-44a6.007,6.007,0,0,1-6-6V68a6.007,6.007,0,0,1,6-6h44a6.007,6.007,0,0,1,6,6v44A6.007,6.007,0,0,1,5847,118Zm-21.424-41.569a13.481,13.481,0,0,0-5.255,1.061,13.723,13.723,0,0,0-4.331,2.89,13.28,13.28,0,0,0-4.023,9.513,14.748,14.748,0,0,0,1,5.476,12.315,12.315,0,0,0,2.8,4.254,12.518,12.518,0,0,0,4.3,2.755,15.194,15.194,0,0,0,5.5.98,13.214,13.214,0,0,0,5.213-1.071,13.855,13.855,0,0,0,7.24-7.191,13.035,13.035,0,0,0,1.082-5.2h-13.536V93.64h8.568a9.42,9.42,0,0,1-3.312,4.248,9.2,9.2,0,0,1-11.9-1.17,10.117,10.117,0,0,1,0-13.644,9.057,9.057,0,0,1,6.642-2.826,8.853,8.853,0,0,1,6.7,2.881l2.88-2.881A13.471,13.471,0,0,0,5825.576,76.432Z" transform="translate(-5797 -62)" fill="#fff"/>
</svg>
