<svg xmlns="http://www.w3.org/2000/svg" width="193.518" height="529.613" viewBox="0 0 193.518 529.613">
  <path id="Subtraction_18" data-name="Subtraction 18" d="M8793.518,626.939h0A247.183,247.183,0,0,1,8763,623.985c-23.54-3.862-43.053-11.2-58-21.8a79.161,79.161,0,0,1-21.621-22.475,67.833,67.833,0,0,1-9.653-26.24,74.787,74.787,0,0,1,1.261-27.716,90.711,90.711,0,0,1,11.12-26.9c24.7-40.485,11.017-85.839-41.829-138.656-4.6-4.579-9.5-9.256-14.565-13.9a49.758,49.758,0,0,1-11.84-15.8,40.275,40.275,0,0,1-3.617-17.112,56.107,56.107,0,0,1,4.224-20.077,104.2,104.2,0,0,1,11.386-20.737,191.247,191.247,0,0,1,16.989-20.893c6.123-6.609,13.2-13.521,21.039-20.544,7.938-7.113,12.039-15.63,12.192-25.317.221-13.925-7.421-30.36-23.361-50.241-13.656-17.033-31.361-33.943-45.588-47.53l0,0c-3.96-3.782-7.7-7.355-11.138-10.718h193.518Z" transform="translate(-8600 -97.327)" fill="#fc9528"/>
</svg>
